<svg id="Capa_1" enable-background="new 0 0 512 512" height="512" viewBox="0 0 512 512" width="512" xmlns="http://www.w3.org/2000/svg"><g><g><g><g><g><g><g><path d="m0 256c0-141.385 114.615-256 256-256s256 114.615 256 256c0 75.882-33.015 144.054-85.465 190.933-45.275 40.467-295.794 40.467-341.069 0-52.451-46.879-85.466-115.051-85.466-190.933z" fill="#7584f2"/></g></g></g></g></g></g><path d="m379.411 158.924-71.766-71.766-193.956 269.588 50.263 50.263s-.371 38.087 20.709 44.991c63.24 20.713 207.918 25.282 241.874-5.067 52.449-46.879 85.465-115.051 85.465-190.933 0-.591-.002-1.181-.006-1.771l-116.359-116.359z" fill="#4253ce"/><g><g><path d="m340.769 280.341h30v165.61h-30z" fill="#ff432e"/></g><g><path d="m428.192 239.073c0-20.167-8.243-38.408-21.542-51.539 1.364-4.697 2.095-9.662 2.095-14.798 0-29.258-23.718-52.976-52.976-52.976s-52.976 23.718-52.976 52.976c0 5.136.731 10.102 2.095 14.798-13.3 13.131-21.542 31.372-21.542 51.539 0 10.518 2.242 20.512 6.275 29.531-4.032 9.019-6.275 19.013-6.275 29.531 0 39.998 32.425 72.423 72.423 72.423s72.423-32.425 72.423-72.423c0-10.518-2.242-20.512-6.275-29.531 4.032-9.019 6.275-19.013 6.275-29.531z" fill="#82b20b"/></g><g><path d="m141.231 280.341h30v165.61h-30z" fill="#ff6c52"/></g><g><path d="m228.655 239.073c0-20.167-8.242-38.408-21.542-51.539 1.364-4.697 2.095-9.662 2.095-14.798 0-29.258-23.718-52.976-52.976-52.976s-52.976 23.718-52.976 52.976c0 5.136.731 10.102 2.095 14.798-13.3 13.131-21.542 31.372-21.542 51.539 0 10.518 2.242 20.512 6.275 29.531-4.032 9.019-6.275 19.013-6.275 29.531 0 39.998 32.425 72.423 72.423 72.423s72.423-32.425 72.423-72.423c0-10.518-2.242-20.512-6.275-29.531 4.032-9.019 6.275-19.013 6.275-29.531z" fill="#a8d812"/></g></g><g><path d="m241 250h30v195.951h-30z" fill="#ff6c52"/></g><g><path d="m256.12 250h14.88v195.951h-14.88z" fill="#ff432e"/></g><g><path d="m341.692 201.172c0-23.861-9.753-45.444-25.489-60.981 1.613-5.557 2.478-11.432 2.478-17.51 0-34.618-28.063-62.681-62.681-62.681s-62.681 28.063-62.681 62.681c0 6.077.865 11.952 2.478 17.51-15.736 15.537-25.489 37.12-25.489 60.981 0 12.445 2.653 24.27 7.424 34.941-4.771 10.671-7.424 22.496-7.424 34.941 0 47.326 38.365 85.692 85.692 85.692s85.692-38.365 85.692-85.692c0-12.445-2.653-24.27-7.424-34.941 4.771-10.671 7.424-22.496 7.424-34.941z" fill="#c3e535"/></g><g><path d="m341.692 201.172c0-23.861-9.753-45.444-25.489-60.981 1.613-5.557 2.478-11.432 2.478-17.51 0-34.577-27.999-62.613-62.561-62.678v296.74c47.271-.065 85.571-38.403 85.571-85.689 0-12.445-2.653-24.27-7.424-34.941 4.772-10.671 7.425-22.496 7.425-34.941z" fill="#a1d316"/></g><g><path d="m85.465 446.932c45.276 40.467 105.032 65.068 170.535 65.068s125.259-24.601 170.534-65.068c-43.383-11.062-103.762-17.922-170.534-17.922s-127.151 6.86-170.535 17.922z" fill="#c3e535"/></g><g><path d="m256.12 429.01v82.988c65.455-.03 125.167-24.625 170.414-65.066-43.357-11.055-103.69-17.913-170.414-17.922z" fill="#a1d316"/></g></g></svg>